<svg width="16" height="16" viewBox="0 0 16 16" fill="none" xmlns="http://www.w3.org/2000/svg">
<path fill-rule="evenodd" clip-rule="evenodd" d="M8.00033 2.00033C4.68662 2.00033 2.00033 4.68662 2.00033 8.00033C2.00033 11.314 4.68662 14.0003 8.00033 14.0003C11.314 14.0003 14.0003 11.314 14.0003 8.00033C14.0003 4.68662 11.314 2.00033 8.00033 2.00033ZM0.666992 8.00033C0.666992 3.95024 3.95024 0.666992 8.00033 0.666992C12.0504 0.666992 15.3337 3.95024 15.3337 8.00033C15.3337 12.0504 12.0504 15.3337 8.00033 15.3337C3.95024 15.3337 0.666992 12.0504 0.666992 8.00033Z" fill="#FF4242"/>
<path d="M8.66699 10.667C8.66699 11.0352 8.36851 11.3337 8.00033 11.3337C7.63214 11.3337 7.33366 11.0352 7.33366 10.667C7.33366 10.2988 7.63214 10.0003 8.00033 10.0003C8.36851 10.0003 8.66699 10.2988 8.66699 10.667Z" fill="#FF4242"/>
<path fill-rule="evenodd" clip-rule="evenodd" d="M8.00033 9.08366C7.63214 9.08366 7.33366 8.78518 7.33366 8.41699V4.66699C7.33366 4.2988 7.63214 4.00033 8.00033 4.00033C8.36851 4.00033 8.66699 4.2988 8.66699 4.66699V8.41699C8.66699 8.78518 8.36851 9.08366 8.00033 9.08366Z" fill="#FF4242"/>
</svg>
