<svg width="20" height="20" fill="none" xmlns="http://www.w3.org/2000/svg">
  <path d="M10 19.167c5.055 0 9.167-4.112 9.167-9.166a9.09 9.09 0 0 0-.363-2.556.763.763 0 1 0-1.466.429c.2.684.302 1.4.302 2.127 0 4.212-3.427 7.639-7.64 7.639-4.211 0-7.638-3.427-7.638-7.64 0-4.211 3.427-7.638 7.639-7.638 1.53 0 3.003.447 4.259 1.294a.764.764 0 0 0 .854-1.267A9.11 9.11 0 0 0 10 .834C4.946.834.834 4.946.834 10.001c0 5.054 4.112 9.166 9.167 9.166Z" fill="#FF5A30"/>
  <path d="m18.578 1.911-8.577 8.577-2.745-2.743a.833.833 0 0 0-1.178 1.178l3.333 3.333a.83.83 0 0 0 1.179 0l9.166-9.166a.833.833 0 0 0-1.178-1.179Z" fill="#FF5A30"/>
</svg>
