<?xml version="1.0" encoding="utf-8"?><svg viewBox="0 0 53 52" xmlns="http://www.w3.org/2000/svg" xmlns:xlink="http://www.w3.org/1999/xlink"><style>:root>svg{display:none}:root>svg:target{display:block}</style><svg viewBox="0 0 18 12" id="arrow-right" xmlns="http://www.w3.org/2000/svg"><path fill-rule="evenodd" clip-rule="evenodd" d="M11.793.793a1 1 0 011.414 0l4.5 4.5a1 1 0 010 1.414l-4.5 4.5a1 1 0 01-1.414-1.414L14.586 7H1a1 1 0 010-2h13.586l-2.793-2.793a1 1 0 010-1.414z"/></svg><svg viewBox="0 0 48 48" id="camera" xmlns="http://www.w3.org/2000/svg"><path d="M33.462 33.42v-9.731l5.61-2.323c4.509-1.868 6.658-7.056 4.79-11.566-1.868-4.509-7.056-6.658-11.565-4.79L1.674 17.695l2.535 3.785L0 23.223l3.356 8.101 5.828-2.414 2.535 3.785 13.301-5.51v6.235a5.975 5.975 0 00-1.773 4.25 6 6 0 005.994 5.994c1.66 0 3.165-.678 4.251-1.773H48V33.45H33.492l-.03-.03zM4.878 27.65l-1.203-2.905 2.13-.882 1.784 2.664-2.711 1.123zm7.895 1.565L5.92 18.98 33.373 7.608a6.046 6.046 0 017.89 3.269 6.046 6.046 0 01-3.268 7.89L12.773 29.215zm15.06-3.194l2.817-1.167v6.991a5.984 5.984 0 00-2.817 0v-5.824zm1.408 14.83a3.185 3.185 0 01-3.181-3.18 3.185 3.185 0 013.181-3.182 3.185 3.185 0 013.182 3.181 3.185 3.185 0 01-3.182 3.182zm5.825-4.589h10.122v2.817H35.066a5.986 5.986 0 000-2.817z"/></svg><svg viewBox="0 0 24 24" id="close" xmlns="http://www.w3.org/2000/svg"><path d="M23.954 21.03l-9.184-9.095 9.092-9.174L21.03-.046l-9.09 9.179L2.764.045l-2.81 2.81L9.14 11.96.045 21.144l2.81 2.81 9.112-9.192 9.18 9.1z"/></svg><svg viewBox="0 0 53 50" id="construction" xmlns="http://www.w3.org/2000/svg"><path d="M50.977 26.523c.84 0 1.523-.682 1.523-1.523V13.625c0-.841-.682-1.523-1.523-1.523H28.023V2.25c0-.841-.682-1.523-1.523-1.523H10.25c-.841 0-1.523.682-1.523 1.523v9.852H2.023c-.84 0-1.523.682-1.523 1.523V25c0 .841.682 1.523 1.523 1.523h6.704v8.329H2.023c-.84 0-1.523.682-1.523 1.523V47.75c0 .841.682 1.523 1.523 1.523h48.954c.84 0 1.523-.682 1.523-1.523V36.375c0-.841-.682-1.523-1.523-1.523h-6.704v-8.329h6.704zm-1.524-3.046H36.148v-8.329h13.305v8.329zm-16.351 0H19.898v-8.329h13.204v8.329zM11.773 3.773h13.204v8.329H11.773V3.773zM3.547 23.477v-8.329h13.305v8.329H3.547zm8.226 3.046h13.204v8.329H11.773v-8.329zM3.547 37.898h13.305v8.329H3.547v-8.329zm16.351 0h13.204v8.329H19.898v-8.329zm29.555 0v8.329H36.148v-8.329h13.305zm-8.226-3.046H28.023v-8.329h13.204v8.329z"/></svg><svg viewBox="0 0 48 48" id="contact" xmlns="http://www.w3.org/2000/svg"><g clip-path="url(#ea)"><path d="M16.62 9.248H8.228a1.406 1.406 0 100 2.813h8.392a1.406 1.406 0 000-2.813zm0 5.625H8.228a1.406 1.406 0 100 2.813h8.392a1.406 1.406 0 000-2.813zm0 5.625H8.228a1.406 1.406 0 100 2.813h8.392a1.406 1.406 0 000-2.813zm0 5.625H8.228a1.406 1.406 0 100 2.813h8.392a1.406 1.406 0 000-2.813zm0 5.721H8.228a1.406 1.406 0 000 2.812h8.392a1.406 1.406 0 000-2.812zm4.723-19.784h8.393a1.406 1.406 0 100-2.812h-8.393a1.406 1.406 0 000 2.813zm0 5.626h8.393a1.406 1.406 0 100-2.813h-8.393a1.406 1.406 0 000 2.813zm5.448 4.218c0-.776-.63-1.406-1.406-1.406h-4.042a1.406 1.406 0 000 2.813h4.042c.777 0 1.406-.63 1.406-1.407zm13.322 10.532a1.406 1.406 0 00-1.976.217l-3.622 4.516-2.243-1.625a1.406 1.406 0 10-1.65 2.278l3.327 2.41a1.402 1.402 0 001.922-.26l4.46-5.559a1.406 1.406 0 00-.218-1.977z"/><path d="M43.667 28.12a11.598 11.598 0 00-6.735-3.385V5.663A5.67 5.67 0 0031.268 0H6.695a5.67 5.67 0 00-5.664 5.663V38.24a5.67 5.67 0 005.664 5.664h19.764A11.576 11.576 0 0035.34 48c6.44 0 11.679-5.243 11.679-11.687a11.62 11.62 0 00-3.352-8.194zM3.844 38.239V5.663a2.854 2.854 0 012.851-2.85h24.573a2.854 2.854 0 012.851 2.85V24.69c-5.868.613-10.458 5.591-10.458 11.623 0 1.672.349 3.288 1.018 4.777H6.695a2.854 2.854 0 01-2.851-2.851zm31.496 6.949a8.8 8.8 0 01-7.084-3.538 8.802 8.802 0 01-1.783-5.337c0-4.893 3.978-8.874 8.867-8.874l.139.001h.022a8.81 8.81 0 016.16 2.65 8.826 8.826 0 012.545 6.223c0 4.893-3.977 8.874-8.866 8.874z"/></g><defs><clipPath id="ea"><path d="M0 0h48v48H0z"/></clipPath></defs></svg><svg viewBox="0 0 20 20" id="facebook" xmlns="http://www.w3.org/2000/svg"><path d="M14.635.838L12.321.834c-2.6 0-4.28 1.77-4.28 4.512v2.08H5.714a.369.369 0 00-.364.374v3.014c0 .207.163.374.364.374H8.04v7.606c0 .206.162.373.363.373h3.037a.369.369 0 00.364-.373v-7.606h2.72a.369.369 0 00.364-.374L14.89 7.8a.38.38 0 00-.106-.264.36.36 0 00-.258-.11h-2.721V5.663c0-.848.196-1.278 1.27-1.278h1.56a.37.37 0 00.364-.375V1.212a.37.37 0 00-.364-.374z"/></svg><svg viewBox="0 0 48 48" id="hand" xmlns="http://www.w3.org/2000/svg"><g clip-path="url(#ga)"><path d="M7 44H1.5A1.5 1.5 0 010 42.5v-17A1.5 1.5 0 011.5 24c7.012 0 10.276 2.434 10.41 2.538a1.5 1.5 0 01.538 1.584l-4 14.772A1.5 1.5 0 017 44zm-4-3h2.852l3.396-12.542c-1.046-.494-3.09-1.23-6.248-1.414V41z"/><path d="M26 48c-4.518 0-12.846-3.458-19.038-6.362a1.5 1.5 0 011.274-2.718C16.476 42.786 22.952 45 26 45c4.056 0 13.264-4.382 18.09-6.91-.556-.318-1.384-.59-2.59-.59-1.76 0-3.93.72-6.028 1.416-.682.226-1.362.452-2.036.658-1.484.458-3.236.926-4.938.926-4.214 0-9.778-2.004-10.012-2.09a1.499 1.499 0 01-.898-1.922 1.503 1.503 0 011.922-.898c.052.02 5.304 1.91 8.988 1.91 1.312 0 2.858-.424 4.058-.794.652-.2 1.31-.418 1.968-.636 2.324-.772 4.726-1.57 6.972-1.57 4.958 0 6.336 3.302 6.392 3.444a1.5 1.5 0 01-.668 1.87C46.62 40.148 32.314 48 26 48z"/><path d="M33 39.68a1.5 1.5 0 01-1.5-1.5v-.9a2.51 2.51 0 00-2-2.45l-19.262-3.94a1.5 1.5 0 01.602-2.939l19.262 3.94a5.52 5.52 0 014.398 5.39v.9A1.5 1.5 0 0133 39.68zm3-11.681c-.2 0-.398-.04-.586-.12C34.948 27.681 24 22.915 24 13.107V5.071a1.5 1.5 0 011.018-1.42L35.518.08c.312-.108.652-.108.964 0l10.5 3.572c.61.206 1.018.776 1.018 1.42v8.036c0 9.808-10.948 14.576-11.414 14.774A1.526 1.526 0 0136 28zM27 6.145v6.962c0 6.696 6.91 10.682 8.998 11.732C38.082 23.783 45 19.777 45 13.107V6.145l-9-3.062-9 3.062z"/><path d="M35.5 19c-.397 0-.78-.158-1.06-.44l-4-4a1.5 1.5 0 112.122-2.122l2.778 2.778L40.3 8.6a1.499 1.499 0 112.398 1.8l-6 8c-.26.348-.659.566-1.095.596-.034.004-.068.004-.104.004z"/></g><defs><clipPath id="ga"><path d="M0 0h48v48H0z"/></clipPath></defs></svg><svg viewBox="0 0 48 48" id="helmet" xmlns="http://www.w3.org/2000/svg"><path d="M45.188 34.086v-4.461c0-4.63-1.494-9.031-4.318-12.727a21.497 21.497 0 00-9.844-7.166 4.224 4.224 0 00-4.213-4.013h-5.625a4.224 4.224 0 00-4.214 4.013 21.497 21.497 0 00-9.844 7.166c-2.825 3.696-4.317 8.097-4.317 12.727v4.46A4.225 4.225 0 000 38.063a4.224 4.224 0 004.219 4.22H43.78A4.223 4.223 0 0048 38.061a4.225 4.225 0 00-2.813-3.976zM5.624 29.625c0-5.071 2.166-9.818 5.719-13.205v4.767a1.406 1.406 0 002.812 0v-6.973a18.292 18.292 0 012.813-1.47V24a1.406 1.406 0 002.812 0V9.938c0-.776.631-1.407 1.407-1.407h5.625c.775 0 1.406.631 1.406 1.406V24a1.406 1.406 0 002.812 0V12.744c.987.411 1.927.905 2.813 1.47v6.973a1.406 1.406 0 002.812 0V16.42c3.553 3.387 5.719 8.134 5.719 13.205v4.219H5.625v-4.219zm38.156 9.844H4.22a1.408 1.408 0 010-2.813h39.56a1.408 1.408 0 010 2.813z"/></svg><svg viewBox="0 0 48 48" id="house" xmlns="http://www.w3.org/2000/svg"><g clip-path="url(#ia)"><path d="M28.922 21.094c-1.957 0-3.657.891-4.922 2.58-1.266-1.689-2.965-2.58-4.922-2.58-3.655 0-6.328 3.004-6.328 6.69 0 4.766 4.619 7.76 10.335 12.659a1.402 1.402 0 001.83 0c5.723-4.905 10.335-7.895 10.335-12.659 0-3.683-2.67-6.69-6.328-6.69zM24 37.529c-5.15-4.351-8.438-6.697-8.438-9.745 0-2.21 1.512-3.878 3.516-3.878 2.606 0 3.529 3.06 3.57 3.198a1.407 1.407 0 002.706-.006c.009-.032.924-3.192 3.568-3.192 2.004 0 3.515 1.667 3.515 3.878 0 3.05-3.291 5.398-8.437 9.745z"/><path d="M46.593 45.188h-4.218V23.345l.024.017a1.406 1.406 0 001.944-.299l3.376-4.499a1.41 1.41 0 00-.302-1.984L24.83.272a1.406 1.406 0 00-1.656-.003l-9.111 6.579V4.22c0-.777-.63-1.407-1.407-1.407H7.031c-.776 0-1.406.63-1.406 1.407v8.72L.583 16.58a1.406 1.406 0 00-.301 1.984l3.375 4.499a1.406 1.406 0 001.944.299l.024-.017v21.843H1.406a1.406 1.406 0 100 2.813h45.187a1.406 1.406 0 000-2.813zM8.437 5.626h2.813v3.253l-2.813 2.03V5.626zM5.082 20.274l-1.69-2.252L24 3.142l20.61 14.88-1.69 2.252L24.822 7.298a1.406 1.406 0 00-1.645 0c-.319.23-17.694 12.688-18.096 12.976zm3.356 1.054C18.767 13.92 22.587 11.183 24 10.168c1.91 1.37 7.12 5.107 15.563 11.16v23.86H8.436v-23.86z"/></g><defs><clipPath id="ia"><path d="M0 0h48v48H0z"/></clipPath></defs></svg><svg viewBox="0 0 48 48" id="like" xmlns="http://www.w3.org/2000/svg"><path d="M44.017 29.719a4.204 4.204 0 001.077-2.813 4.224 4.224 0 00-4.219-4.218h-8.188c.81-2.461 1.157-5.727 1.157-7.126v-1.406a5.632 5.632 0 00-5.625-5.625h-1.407c-.645 0-1.207.439-1.364 1.065l-.765 3.065c-1.074 4.292-4.482 9.027-8.009 9.888a4.225 4.225 0 00-3.924-2.674H4.312c-.776 0-1.406.63-1.406 1.406v25.313c0 .776.63 1.406 1.406 1.406h8.438a4.223 4.223 0 003.808-2.405l4.832 1.61c1.58.528 3.226.795 4.892.795h11.78a4.224 4.224 0 003.923-5.773 4.227 4.227 0 003.109-4.07 4.203 4.203 0 00-1.077-2.813 4.204 4.204 0 001.077-2.813 4.203 4.203 0 00-1.077-2.812zM14.157 43.78c0 .776-.632 1.407-1.407 1.407H5.719v-22.5h7.031c.775 0 1.406.63 1.406 1.406V43.78zm23.905-12.656h2.813a1.407 1.407 0 010 2.813h-2.813a1.407 1.407 0 000 2.812h2.813a1.407 1.407 0 010 2.813h-2.813a1.407 1.407 0 000 2.812 1.408 1.408 0 010 2.813h-11.78c-1.363 0-2.71-.219-4.003-.65l-5.31-1.77v-17.4c2.206-.42 4.365-1.816 6.314-4.103 1.903-2.233 3.446-5.193 4.128-7.92l.5-2h.308a2.816 2.816 0 012.812 2.812v1.406c0 1.888-.59 5.51-1.346 7.126h-2.872a1.407 1.407 0 000 2.812h14.062a1.407 1.407 0 010 2.813h-2.813a1.407 1.407 0 000 2.812z"/><path d="M9.938 42.375a1.406 1.406 0 100-2.813 1.406 1.406 0 000 2.813zM29.625 0c-.777 0-1.406.63-1.406 1.406v2.907a1.406 1.406 0 002.812 0V1.405C31.031.63 30.401 0 29.625 0zm-5.966 6.201L21.67 4.213A1.406 1.406 0 1019.681 6.2l1.99 1.99a1.406 1.406 0 001.988-1.99zm15.91-1.988c-.55-.55-1.44-.55-1.989 0L35.592 6.2a1.406 1.406 0 101.988 1.99l1.99-1.99c.55-.549.55-1.44 0-1.988z"/></svg><svg viewBox="0 0 18 18" id="linkedin" xmlns="http://www.w3.org/2000/svg"><path d="M17.328 17.333l.005-.001v-6.113c0-2.99-.644-5.293-4.14-5.293-1.68 0-2.808.922-3.269 1.796h-.048V6.205H6.56v11.127h3.451v-5.51c0-1.45.275-2.853 2.072-2.853 1.77 0 1.797 1.655 1.797 2.946v5.418h3.447zM.941 6.206h3.456v11.127H.94V6.206zM2.667.666A2.002 2.002 0 00.666 2.667c0 1.105.897 2.02 2.001 2.02 1.105 0 2.002-.915 2.002-2.02A2.003 2.003 0 002.667.666z"/></svg><svg viewBox="0 0 24 24" id="messanger" xmlns="http://www.w3.org/2000/svg"><path d="M12 2C6.478 2 2 6.145 2 11.259c0 2.913 1.454 5.512 3.726 7.21V22l3.405-1.869c.909.252 1.871.388 2.869.388 5.523 0 10-4.145 10-9.259C22 6.146 17.523 2 12 2zm.994 12.469l-2.546-2.716-4.97 2.716 5.467-5.803 2.609 2.716 4.906-2.716-5.466 5.803z"/></svg><svg viewBox="0 0 14 14" id="mute" xmlns="http://www.w3.org/2000/svg"><path fill-rule="evenodd" clip-rule="evenodd" d="M8 11.583c.584.416 1.334.083 1.334-.667v-3.75L6.25 10.249 8 11.583zM13.25.416a.805.805 0 00-1.166 0l-2.75 2.75V1.083C9.334.416 8.5-.001 8 .416L5.667 2.333c-.333.166-.667.333-1.083.333H2.667C1.75 2.666 1 3.416 1 4.333v3.333c0 .917.75 1.667 1.667 1.667h.5l-2.75 2.75a.806.806 0 000 1.166.806.806 0 001.167 0L13.25 1.583a.805.805 0 000-1.167z"/></svg><svg viewBox="0 0 47 52" id="painting" xmlns="http://www.w3.org/2000/svg"><path d="M40.36 4.57c0-2.52-2.05-4.57-4.57-4.57H5.32C2.8 0 .75 2.05.75 4.57v9.14a4.575 4.575 0 004.57 4.571h30.47c2.52 0 4.57-2.05 4.57-4.57v-1.524h1.523c.84 0 1.523.684 1.523 1.524v6.094c0 .84-.683 1.523-1.523 1.523H23.602c-2.52 0-4.57 2.05-4.57 4.57v4.57h-1.524c-.842 0-1.524.683-1.524 1.524v6.011l-1.523 6.192C13.47 48.157 16.464 52 20.555 52c4.092 0 7.083-3.847 6.095-7.8l-1.525-6.197v-6.01c0-.842-.682-1.524-1.523-1.524h-1.524v-4.57c0-.84.684-1.524 1.524-1.524h18.28c2.52 0 4.571-2.05 4.571-4.57V13.71c0-2.52-2.05-4.57-4.57-4.57h-1.524V4.57zM22.077 33.516v3.148H19.03v-3.148h3.047zm-1.523 15.437a3.234 3.234 0 01-3.137-4.024l1.284-5.218h3.705l1.285 5.223a3.234 3.234 0 01-3.137 4.02zM5.32 3.047h30.47c.839 0 1.523.683 1.523 1.523v1.524h-4.57c-1.481 0-3.375.554-5.567 1.196-2.961.868-6.317 1.85-9.668 1.85-3.267 0-5.57-.954-7.602-1.795-1.553-.643-3.02-1.251-4.586-1.251H3.797V4.57c0-.84.683-1.523 1.523-1.523zM37.312 13.71c0 .84-.683 1.523-1.523 1.523H5.32c-.84 0-1.523-.683-1.523-1.523V9.14H5.32c.96 0 2.045.45 3.42 1.019 2.18.903 4.895 2.027 8.768 2.027 3.788 0 7.523-1.094 10.525-1.972 1.885-.553 3.666-1.074 4.71-1.074h4.57v4.57z"/></svg><svg viewBox="0 0 53 52" id="pantone" xmlns="http://www.w3.org/2000/svg"><g clip-path="url(#oa)"><path d="M11.266 36.664c-2.52 0-4.57 2.05-4.57 4.57 0 2.52 2.05 4.57 4.57 4.57 2.52 0 4.57-2.05 4.57-4.57 0-2.52-2.05-4.57-4.57-4.57zm0 6.094c-.84 0-1.524-.684-1.524-1.524s.684-1.523 1.524-1.523a1.524 1.524 0 010 3.047z"/><path d="M49.75 30.95a4.572 4.572 0 00.286-5.005l-6.09-10.65c-1.054-1.825-3.276-2.658-5.258-2.128a4.579 4.579 0 00-2.176-4.954L25.958 2.12a4.574 4.574 0 00-4.695.076A4.572 4.572 0 0017.359 0H5.07C2.55 0 .5 2.05.5 4.57v42.86C.5 49.95 2.55 52 5.07 52h42.86c2.52 0 4.57-2.05 4.57-4.57V35.14a4.576 4.576 0 00-2.75-4.19zM18.883 47.43c0 .84-.684 1.523-1.524 1.523H5.07c-.84 0-1.523-.683-1.523-1.523V33.617h15.336V47.43zm0-16.86H3.547V18.281h15.336v12.29zm0-15.336H3.547V4.57c0-.84.683-1.523 1.523-1.523h12.29c.84 0 1.523.683 1.523 1.523v10.664zM21.93 6.05l.423-.734a1.526 1.526 0 012.082-.558l10.554 6.094c.728.42.978 1.354.557 2.083l-1.76 3.06a1.517 1.517 0 00-.118.203L21.93 36.603V6.05zm0 36.663l14.24-24.755 2.945-1.7c.746-.43 1.77-.17 2.188.555l6.09 10.65c.422.73.176 1.665-.561 2.09L21.93 43.972v-1.258zm27.523 4.717c0 .84-.683 1.523-1.523 1.523H21.668c.162-.458.253-.95.26-1.46l23.967-13.876h2.035c.84 0 1.523.684 1.523 1.524V47.43z"/></g><defs><clipPath id="oa"><path transform="translate(.5)" d="M0 0h52v52H0z"/></clipPath></defs></svg><svg viewBox="0 0 53 52" id="plan" xmlns="http://www.w3.org/2000/svg"><g clip-path="url(#pa)"><path d="M46.406 3.148a6.097 6.097 0 00-5.276 3.047H2.023C1.183 6.195.5 6.877.5 7.72v39.61c0 .84.682 1.523 1.523 1.523h44.383a6.1 6.1 0 006.094-6.094V9.242a6.1 6.1 0 00-6.094-6.094zm0 42.657H3.546V9.242h36.767v33.516a1.523 1.523 0 003.046 0 3.05 3.05 0 013.047-3.047 3.05 3.05 0 013.047 3.047 3.05 3.05 0 01-3.047 3.047zm3.047-8.323a6.057 6.057 0 00-3.047-.818c-1.109 0-2.15.298-3.047.818V9.242a3.05 3.05 0 013.047-3.047 3.05 3.05 0 013.047 3.047v28.24z"/><path d="M35.64 12.29H8.22c-.842 0-1.524.681-1.524 1.523v27.421c0 .842.682 1.524 1.524 1.524h15.234a1.523 1.523 0 001.524-1.524v-3.047a4.578 4.578 0 013.046-4.309v7.356c0 .842.683 1.524 1.524 1.524h6.094c.841 0 1.523-.682 1.523-1.524V13.812c0-.84-.682-1.523-1.523-1.523zm-1.523 27.42H31.07v-7.616c0-.842-.682-1.524-1.523-1.524-4.2 0-7.617 3.417-7.617 7.617v1.524H9.742v-9.14h6.094v4.57a1.524 1.524 0 003.047 0v-6.094c0-.841-.682-1.524-1.524-1.524H9.742V15.336h9.14v6.094h-4.57a1.523 1.523 0 000 3.047H26.5a1.523 1.523 0 000-3.047h-4.57v-6.094h12.187V39.71z"/></g><defs><clipPath id="pa"><path transform="translate(.5)" d="M0 0h52v52H0z"/></clipPath></defs></svg><svg viewBox="0 0 19 22" id="play" xmlns="http://www.w3.org/2000/svg"><path d="M18.5 10.134a1 1 0 010 1.732L2 21.392a1 1 0 01-1.5-.866V1.474A1 1 0 012 .608l16.5 9.526z"/></svg><svg viewBox="0 0 16 17" id="share" xmlns="http://www.w3.org/2000/svg"><path d="M.667 7.828l6.096-6.662v3.975h1.295c4.019 0 7.276 3.247 7.276 7.252v2.106l-.576-.628a10.344 10.344 0 00-7.629-3.355h-.366v3.974L.667 7.828z"/></svg><svg viewBox="0 0 48 48" id="slippers" xmlns="http://www.w3.org/2000/svg"><g clip-path="url(#sa)"><path d="M38.054 2.09c-6.17-.648-11.716 3.843-12.365 10.012l-1.127 10.723a1.406 1.406 0 001.252 1.545l.466.05-1.176 11.188c-.54 5.14 3.203 9.763 8.344 10.303 5.14.54 9.763-3.203 10.303-8.344l1.176-11.188.467.05a1.406 1.406 0 001.545-1.252l1.127-10.723c.648-6.169-3.843-11.716-10.012-12.364zm-.294 2.797c4.627.486 7.995 4.646 7.509 9.273l-.392 3.73-16.783-1.764.392-3.73c.487-4.627 4.647-7.995 9.274-7.509zM27.506 21.72l.294-2.797 16.783 1.764-.294 2.797-16.783-1.764zm13.448 15.553a6.57 6.57 0 01-7.212 5.841 6.57 6.57 0 01-5.84-7.212l1.175-11.189 13.053 1.372-1.176 11.188z"/><path d="M32.171 40.122l3.73.392a1.406 1.406 0 00.293-2.797l-3.729-.392a1.406 1.406 0 00-.294 2.797zM9.947 2.09C3.777 2.738-.713 8.285-.065 14.454l1.127 10.722a1.406 1.406 0 001.545 1.252l.466-.05 1.176 11.19c.54 5.14 5.163 8.883 10.304 8.343 5.141-.54 8.884-5.163 8.344-10.304L21.72 24.42l.466-.05a1.406 1.406 0 001.251-1.545L22.31 12.103c-.648-6.17-6.195-10.66-12.364-10.012zM3.712 23.484l-.294-2.797L20.2 18.923l.294 2.797-16.782 1.764zM20.099 35.9a6.57 6.57 0 01-5.84 7.213 6.57 6.57 0 01-7.213-5.84L5.87 26.083l13.054-1.371L20.099 35.9zm-.193-19.776L3.124 17.89l-.392-3.73c-.486-4.627 2.882-8.787 7.51-9.273 4.626-.487 8.786 2.882 9.272 7.51l.392 3.728z"/><path d="M12.1 40.513l3.73-.392a1.406 1.406 0 00-.295-2.797l-3.73.392a1.406 1.406 0 10.295 2.797z"/></g><defs><clipPath id="sa"><path d="M0 0h48v48H0z"/></clipPath></defs></svg><svg viewBox="0 0 20 20" id="twitter" xmlns="http://www.w3.org/2000/svg"><path d="M18.75 4.81a7.419 7.419 0 01-2.061.541 3.483 3.483 0 001.578-1.9 7.435 7.435 0 01-2.281.834 3.655 3.655 0 00-2.62-1.086c-1.983 0-3.59 1.54-3.59 3.437 0 .269.03.532.092.783C6.885 7.276 4.24 5.907 2.47 3.827a3.301 3.301 0 00-.485 1.728c0 1.193.634 2.245 1.596 2.86a3.712 3.712 0 01-1.626-.43v.042c0 1.665 1.238 3.055 2.88 3.37a3.767 3.767 0 01-.946.121c-.232 0-.456-.022-.676-.064.457 1.367 1.782 2.36 3.353 2.388a7.408 7.408 0 01-4.459 1.469 7.98 7.98 0 01-.856-.047 10.477 10.477 0 005.503 1.546c6.604 0 10.213-5.237 10.213-9.78l-.012-.444A7.01 7.01 0 0018.75 4.81z"/></svg><svg viewBox="0 0 24 24" id="whatsapp" xmlns="http://www.w3.org/2000/svg"><path d="M22 11.742c0 5.381-4.395 9.743-9.818 9.743a9.835 9.835 0 01-4.746-1.212L2 22l1.772-5.227a9.64 9.64 0 01-1.409-5.03C2.363 6.361 6.76 2 12.182 2 17.605 2 22 6.362 22 11.742zm-9.818-8.19c-4.552 0-8.255 3.674-8.255 8.19 0 1.793.584 3.452 1.573 4.803l-1.032 3.042 3.172-1.009a8.25 8.25 0 004.542 1.355c4.551 0 8.255-3.674 8.255-8.19 0-4.517-3.703-8.191-8.255-8.191zm4.958 10.434c-.06-.1-.221-.16-.462-.278-.24-.12-1.424-.698-1.644-.777-.22-.08-.382-.12-.542.12-.16.238-.621.776-.762.935-.14.16-.28.18-.522.06-.24-.119-1.015-.371-1.935-1.185-.715-.633-1.198-1.414-1.339-1.653-.14-.24-.014-.368.106-.487.108-.107.24-.279.361-.418.12-.14.16-.24.24-.399.081-.16.041-.298-.02-.418-.06-.12-.541-1.295-.742-1.773-.2-.478-.4-.398-.541-.398-.14 0-.3-.02-.461-.02-.16 0-.422.06-.642.299-.22.239-.842.816-.842 1.991 0 1.175.862 2.31.982 2.47.12.159 1.665 2.649 4.111 3.605 2.447.956 2.447.637 2.889.597.44-.04 1.423-.578 1.625-1.135.2-.558.2-1.036.14-1.136z"/></svg><svg viewBox="0 0 24 24" id="youtube" xmlns="http://www.w3.org/2000/svg"><path fill-rule="evenodd" clip-rule="evenodd" d="M21.39 4.114a3.007 3.007 0 012.116 2.115c.514 1.878.494 5.792.494 5.792s0 3.895-.494 5.773a3.007 3.007 0 01-2.116 2.115c-1.878.495-9.39.495-9.39.495s-7.493 0-9.39-.514a3.007 3.007 0 01-2.116-2.116C0 15.916 0 12.001 0 12.001S0 8.107.494 6.23A3.068 3.068 0 012.61 4.094C4.488 3.6 12 3.6 12 3.6s7.513 0 9.391.514zm-5.535 7.888L9.608 15.6V8.404l6.247 3.598z"/></svg></svg>